<?xml version="1.0" encoding="UTF-8" standalone="no"?>
<!-- Created with Inkscape (http://www.inkscape.org/) -->

<svg
   version="1.1"
   id="svg1"
   width="365.34698"
   height="365.32422"
   viewBox="0 0 365.34697 365.32422"
   sodipodi:docname="logo_grayscale.svg"
   inkscape:export-filename="Pictures/Materials/timer.svg"
   inkscape:export-xdpi="96"
   inkscape:export-ydpi="96"
   inkscape:version="1.3.2 (091e20e, 2023-11-25)"
   xmlns:inkscape="http://www.inkscape.org/namespaces/inkscape"
   xmlns:sodipodi="http://sodipodi.sourceforge.net/DTD/sodipodi-0.dtd"
   xmlns:xlink="http://www.w3.org/1999/xlink"
   xmlns="http://www.w3.org/2000/svg"
   xmlns:svg="http://www.w3.org/2000/svg">
  <defs
     id="defs1">
    <linearGradient
       id="linearGradient12"
       inkscape:collect="always">
      <stop
         style="stop-color:#000000;stop-opacity:0;"
         offset="0"
         id="stop12" />
      <stop
         style="stop-color:#000000;stop-opacity:1;"
         offset="1"
         id="stop13" />
    </linearGradient>
    <linearGradient
       id="linearGradient8">
      <stop
         style="stop-color:#e5e5e5;stop-opacity:1;"
         offset="0"
         id="stop7" />
      <stop
         style="stop-color:#000000;stop-opacity:1;"
         offset="1"
         id="stop8" />
    </linearGradient>
    <linearGradient
       id="linearGradient1">
      <stop
         style="stop-color:#0b5c80;stop-opacity:1;"
         offset="0"
         id="stop4" />
      <stop
         style="stop-color:#0f80b2;stop-opacity:1;"
         offset="1"
         id="stop5" />
    </linearGradient>
    <linearGradient
       inkscape:collect="always"
       xlink:href="#linearGradient8"
       id="linearGradient4"
       x1="68.815704"
       y1="75.002983"
       x2="204.01108"
       y2="20.839476"
       gradientUnits="userSpaceOnUse" />
    <linearGradient
       inkscape:collect="always"
       xlink:href="#linearGradient12"
       id="linearGradient13"
       x1="138.62537"
       y1="140.43938"
       x2="264.25333"
       y2="265.17273"
       gradientUnits="userSpaceOnUse" />
  </defs>
  <sodipodi:namedview
     id="namedview1"
     pagecolor="#ffffff"
     bordercolor="#666666"
     borderopacity="1.0"
     inkscape:showpageshadow="2"
     inkscape:pageopacity="0.0"
     inkscape:pagecheckerboard="0"
     inkscape:deskcolor="#d1d1d1"
     showgrid="false"
     inkscape:zoom="1.4142136"
     inkscape:cx="53.033007"
     inkscape:cy="214.25335"
     inkscape:window-width="1850"
     inkscape:window-height="1016"
     inkscape:window-x="70"
     inkscape:window-y="27"
     inkscape:window-maximized="1"
     inkscape:current-layer="g1" />
  <g
     inkscape:groupmode="layer"
     inkscape:label="Image"
     id="g1"
     transform="translate(-19.469635,-17.225157)">
    <path
       id="outter"
       style="display:inline;opacity:0.8;fill:url(#linearGradient4);stroke:#000000;stroke-width:3.77952756;stroke-dasharray:none;stroke-opacity:0.30000001;stroke-dashoffset:0"
       d="M 205.0126 17.225157 L 205.0126 17.279844 A 20 20 0 0 0 204.47354 17.266173 A 20 20 0 0 0 184.47354 37.266173 A 20 20 0 0 0 204.3837 57.260313 L 204.38174 57.330626 A 142.59901 142.59901 0 0 1 344.74112 199.87555 A 142.59901 142.59901 0 0 1 202.14346 342.47516 A 142.59901 142.59901 0 0 1 59.543854 199.87555 A 142.59901 142.59901 0 0 1 92.918854 109.36188 L 108.4169 132.26422 L 154.34073 37.738829 L 49.51651 45.231016 L 69.489166 74.742735 A 182.67339 182.67339 0 0 0 49.594635 300.36774 A 182.67339 182.67339 0 0 0 270.42667 369.30719 A 182.67339 182.67339 0 0 0 381.74307 166.50836 A 182.67339 182.67339 0 0 0 205.0126 17.225157 z "
       inkscape:label="outter" />
    <path
       id="inner"
       style="fill:url(#linearGradient13);fill-opacity:1;stroke:#000000;stroke-width:3.77952756;opacity:0.6;stroke-opacity:0.2;stroke-dasharray:none"
       d="M 130.3706 128.12472 A 101.50209 101.50209 0 0 0 130.37103 271.67206 A 101.50209 101.50209 0 0 0 272.54199 272.87743 L 282.37647 280.62215 L 289.47609 231.47792 L 243.36564 249.90387 L 254.88039 258.96996 A 79.544937 79.544937 0 0 1 202.14344 279.44415 A 79.544937 79.544937 0 0 1 122.59724 199.89958 A 79.544937 79.544937 0 0 1 146.04018 143.79519 L 130.3706 128.12472 z "
       transform="rotate(17.692571,247.56651,235.00374)" />
    <path
       id="hands"
       style="fill:#000000;fill-opacity:1;opacity:1;stroke:#ffffff;stroke-width:2;stroke-dasharray:none;stroke-opacity:1;stroke-dashoffset:0"
       d="M 202.86807 79.779844 A 20 20 0 0 0 182.87589 99.666563 L 182.86807 99.666563 L 182.86807 99.779844 L 182.86807 211.14508 L 182.86417 211.14899 L 244.18643 249.60016 A 20 20 0 0 0 244.94229 250.07281 L 245.69424 250.54547 L 245.72354 250.50055 A 20 20 0 0 0 255.30362 253.0025 A 20 20 0 0 0 275.30362 233.0025 A 20 20 0 0 0 266.90518 216.71734 L 266.94424 216.6568 L 222.86807 189.02008 L 222.86807 99.779844 L 222.86807 99.666563 L 222.86417 99.666563 A 20 20 0 0 0 202.86807 79.779844 z " />
  </g>
</svg>
